<svg xmlns="http://www.w3.org/2000/svg" width="234" height="180" viewBox="0 0 234 180">
  <defs>
    <linearGradient id="logo-jcb-a" x1="-57.527%" x2="232.391%" y1="50.124%" y2="50.124%">
      <stop offset="0%" stop-color="#007940"/>
      <stop offset="22.85%" stop-color="#00873F"/>
      <stop offset="74.33%" stop-color="#40A737"/>
      <stop offset="100%" stop-color="#5CB531"/>
    </linearGradient>
    <linearGradient id="logo-jcb-b" x1=".183%" x2="100.273%" y1="49.96%" y2="49.96%">
      <stop offset="0%" stop-color="#007940"/>
      <stop offset="22.85%" stop-color="#00873F"/>
      <stop offset="74.33%" stop-color="#40A737"/>
      <stop offset="100%" stop-color="#5CB531"/>
    </linearGradient>
    <linearGradient id="logo-jcb-c" x1="-62.802%" x2="253.671%" y1="49.858%" y2="49.858%">
      <stop offset="0%" stop-color="#007940"/>
      <stop offset="22.85%" stop-color="#00873F"/>
      <stop offset="74.33%" stop-color="#40A737"/>
      <stop offset="100%" stop-color="#5CB531"/>
    </linearGradient>
    <linearGradient id="logo-jcb-d" x1=".176%" x2="101.808%" y1="50.006%" y2="50.006%">
      <stop offset="0%" stop-color="#1F286F"/>
      <stop offset="47.51%" stop-color="#004E94"/>
      <stop offset="82.61%" stop-color="#0066B1"/>
      <stop offset="100%" stop-color="#006FBC"/>
    </linearGradient>
    <linearGradient id="logo-jcb-e" x1="-.576%" x2="98.133%" y1="49.914%" y2="49.914%">
      <stop offset="0%" stop-color="#6C2C2F"/>
      <stop offset="17.35%" stop-color="#882730"/>
      <stop offset="57.31%" stop-color="#BE1833"/>
      <stop offset="85.85%" stop-color="#DC0436"/>
      <stop offset="100%" stop-color="#E60039"/>
    </linearGradient>
  </defs>
  <g fill="none" transform="translate(15 15)">
    <path fill="#FFF" stroke="#FFF" stroke-linejoin="round" stroke-width="30" d="M24.9630184,0 C11.3220247,0 0.136409936,11.146789 0.136409936,25.0458716 L0,150 L179.173392,150 C192.814385,150 204,138.853211 204,124.954128 L204,0 L24.9630184,0 Z" opacity=".895"/>
    <path fill="url(#logo-jcb-a)" d="M151,91 L167.258065,91 C167.722581,91 168.806452,90.8854167 169.270968,90.8854167 C172.367742,90.4270833 175,88.3645833 175,85.5 C175,82.75 172.367742,80.6875 169.270968,80.1145833 C168.806452,80 167.877419,80 167.258065,80 L151,80 L151,91 Z"/>
    <path fill="url(#logo-jcb-b)" d="M166.084633,0 C151.830735,0 140.142539,11.136572 140.142539,25.0229148 L140.142539,51.0082493 L176.775056,51.0082493 C177.63029,51.0082493 178.628062,51.0082493 179.340757,51.1457379 C187.608018,51.5582035 193.737194,55.6828598 193.737194,62.832264 C193.737194,68.4692942 189.603563,73.2813932 181.906459,74.243813 L181.906459,74.5187901 C190.316258,75.0687443 196.730512,79.6058662 196.730512,86.6177819 C196.730512,94.1796517 189.603563,99.1292392 180.195991,99.1292392 L140,99.1292392 L140,150 L178.057906,150 C192.311804,150 204,138.863428 204,124.977085 L204,0 L166.084633,0 Z"/>
    <path fill="url(#logo-jcb-c)" d="M172,64.5 C172,61.5 169.485915,59.5 166.528169,59.125 C166.232394,59.125 165.492958,59 165.049296,59 L151,59 L151,70 L165.049296,70 C165.492958,70 166.380282,70 166.528169,69.875 C169.485915,69.5 172,67.5 172,64.5 L172,64.5 Z"/>
    <path fill="url(#logo-jcb-d)" d="M26.0846325,0 C11.830735,0 0.142538976,11.146789 0.142538976,25.0458716 L0.142538976,86.8348624 C7.41202673,90.2752294 14.9665924,92.4770642 22.5211581,92.4770642 C31.5011136,92.4770642 36.3474388,87.2477064 36.3474388,80.0917431 L36.3474388,50.9174312 L58.5835189,50.9174312 L58.5835189,79.9541284 C58.5835189,91.2385321 51.3140312,100.458716 26.6547884,100.458716 C11.688196,100.458716 0,97.293578 0,97.293578 L0,150 L38.0579065,150 C52.311804,150 64,138.853211 64,124.954128 L64,0 L26.0846325,0 Z"/>
    <path fill="url(#logo-jcb-e)" d="M95.9420935,0 C81.688196,0 70,11.1263736 70,25 L70,57.6923077 C76.5567929,52.3351648 87.9599109,48.9010989 106.347439,49.7252747 C116.182628,50.1373626 126.730512,52.7472527 126.730512,52.7472527 L126.730512,63.3241758 C121.45657,60.7142857 115.184855,58.3791209 107.060134,57.8296703 C93.091314,56.8681319 84.6815145,63.4615385 84.6815145,75 C84.6815145,86.6758242 93.091314,93.2692308 107.060134,92.1703297 C115.184855,91.6208791 121.45657,89.1483516 126.730512,86.6758242 L126.730512,97.2527473 C126.730512,97.2527473 116.325167,99.8626374 106.347439,100.274725 C87.9599109,101.098901 76.5567929,97.6648352 70,92.3076923 L70,150 L108.057906,150 C122.311804,150 134,138.873626 134,125 L134,0 L95.9420935,0 Z"/>
  </g>
</svg>
